<?xml version="1.0" ?>
<!DOCTYPE svg
  PUBLIC '-//W3C//DTD SVG 20010904//EN'
  'http://www.w3.org/TR/2001/REC-SVG-20010904/DTD/svg10.dtd'>
<svg xmlns="http://www.w3.org/2000/svg" version="1.0" width="300.000000pt" height="300.000000pt" viewBox="0 0 300.000000 300.000000" preserveAspectRatio="xMidYMid meet">
  

  

  <g transform="translate(0.000000,300.000000) scale(0.100000,-0.100000)" fill="#000000" stroke="none">
    

    <path d="M1394 2690 c-28 -11 -37 -36 -23 -62 17 -32 7 -70 -77 -290 -42 -112 -98 -261 -124 -333 -180 -492 -278 -739 -311 -785 -32 -44 -61 -65 -101 -75 -42 -11 -88 39 -88 95 0 85 81 279 184 444 69 109 49 96 -27 -17 -107 -160 -177 -331 -177 -432 0 -49 4 -60 29 -86 64 -63 168 -14 230 109 36 72 491 1252 507 1316 5 20 1 35 -15 56 -11 16 -21 30 -21 32 0 2 50 1 112 -2 l111 -5 153 -420 c84 -231 156 -424 158 -430 3 -5 3 10 0 35 -5 39 -91 303 -182 560 -113 315 -102 300 -230 299 -48 0 -96 -4 -108 -9z"/>
    

    <path d="M2233 2650 c-55 -10 -172 -54 -255 -96 -58 -29 -61 -43 -2 -15 59 28 195 69 271 81 125 20 220 -8 252 -75 12 -24 12 -42 3 -95 -22 -130 -146 -336 -386 -644 -73 -94 -155 -204 -181 -245 -70 -108 -325 -651 -306 -651 5 0 14 15 21 32 21 51 254 517 290 578 17 30 69 101 114 158 198 254 242 312 296 392 123 184 190 331 190 420 0 99 -70 160 -188 166 -37 1 -90 -1 -119 -6z"/>
    

    <path d="M2165 2575 c-70 -15 -176 -53 -190 -68 -7 -7 -6 -8 1 -4 6 3 21 8 35 11 13 2 53 11 89 19 150 35 257 30 280 -13 19 -36 13 -67 -38 -180 -14 -31 -135 -218 -167 -259 -97 -120 -213 -260 -229 -274 -10 -9 -24 -25 -30 -35 -6 -10 -32 -50 -57 -88 -26 -38 -77 -131 -114 -207 -36 -76 -71 -137 -77 -135 -6 2 -38 73 -72 158 -35 85 -70 169 -80 185 -22 39 -17 23 61 -180 36 -93 71 -187 77 -208 l12 -38 82 166 c99 201 141 263 317 475 75 91 166 206 201 255 77 107 153 255 160 310 13 106 -88 148 -261 110z"/>
    

    <path d="M906 2520 c5 -5 70 -11 143 -12 l134 -3 25 -68 c14 -37 27 -65 29 -63 10 10 -40 137 -57 146 -25 13 -287 13 -274 0z"/>
    

    <path d="M923 2464 c20 -21 50 -70 70 -117 48 -111 98 -217 103 -217 3 0 -35 108 -75 208 -37 93 -60 131 -91 147 -45 23 -47 18 -7 -21z"/>
    

    <path d="M1384 2228 l-91 -243 175 -3 c96 -1 176 -1 178 0 2 3 -142 418 -164 471 -5 13 -34 -53 -98 -225z m153 -28 c28 -74 53 -147 57 -162 l6 -28 -130 0 c-71 0 -130 2 -130 4 0 2 16 46 35 97 20 52 43 114 52 139 23 67 44 103 53 94 4 -5 30 -70 57 -144z"/>
    

    <path d="M1231 1825 c-160 -429 -214 -582 -218 -616 -6 -45 8 -69 42 -69 25 0 99 47 135 86 18 19 7 14 -42 -19 -69 -47 -94 -52 -112 -24 -10 16 -5 40 29 127 37 97 86 223 113 295 76 201 95 245 107 255 13 11 92 14 280 11 l90 -1 48 -101 c26 -56 50 -100 52 -98 2 2 -15 56 -36 119 l-40 115 -209 0 -209 0 -30 -80z"/>
    

    <path d="M864 1783 c-27 -32 -64 -76 -81 -98 -59 -77 -173 -286 -173 -318 0 -7 -5 -18 -12 -25 -8 -8 -12 -50 -13 -120 0 -104 1 -110 29 -146 63 -83 192 -102 341 -51 44 15 96 38 115 50 46 29 150 124 150 137 0 5 -27 -15 -61 -45 -191 -173 -460 -206 -538 -66 -21 36 -23 51 -19 122 7 136 93 319 244 520 40 53 71 97 70 97 -2 0 -25 -26 -52 -57z"/>
    

    <path d="M1300 1614 c0 -17 107 -306 183 -494 77 -190 88 -213 93 -207 5 4 -248 663 -267 697 -5 8 -9 10 -9 4z"/>
    

    <path d="M2040 1468 c0 -4 23 -70 51 -145 58 -157 96 -223 148 -259 45 -30 78 -32 36 -1 -76 55 -104 100 -174 275 -40 101 -60 144 -61 130z"/>
    

    <path d="M1901 1285 c0 -5 6 -38 14 -73 17 -70 12 -102 -18 -146 -26 -37 -1 -30 27 8 26 34 25 89 -3 166 -11 30 -20 51 -20 45z"/>
    

    <path d="M1910 1020 c-10 -6 51 -9 180 -9 113 1 184 4 170 9 -36 12 -332 12 -350 0z"/>
    

    <path d="M536 737 c-12 -12 -41 -75 -64 -140 -46 -130 -45 -127 -34 -127 5 0 33 59 63 130 49 119 56 130 78 128 20 -3 32 -21 77 -128 30 -69 54 -126 54 -128 0 -2 16 -10 35 -18 40 -16 167 -19 195 -4 14 7 25 7 39 -2 17 -10 23 -9 40 6 12 11 21 30 21 43 0 43 28 38 71 -11 45 -51 60 -55 89 -26 20 20 20 20 52 0 25 -15 51 -20 104 -20 88 0 119 20 135 86 6 24 15 42 19 39 4 -3 17 -24 28 -47 50 -108 97 -103 157 16 38 75 40 78 46 50 4 -16 7 -47 8 -70 0 -22 6 -45 13 -52 15 -15 50 -16 65 -1 8 8 17 7 34 -5 28 -19 154 -22 192 -5 30 13 47 48 47 92 -1 49 -40 87 -89 87 -12 0 -21 5 -21 11 0 5 -4 8 -8 5 -4 -2 -14 -1 -21 3 -17 11 127 21 170 12 l34 -7 10 -92 c11 -103 28 -132 63 -113 20 11 22 21 34 166 2 23 11 34 38 47 19 9 37 12 38 7 2 -5 -10 -48 -27 -95 -59 -162 -26 -134 45 39 44 107 51 118 73 115 20 -3 31 -22 73 -123 28 -66 55 -124 60 -130 32 -31 -56 224 -90 262 -26 29 -59 29 -89 1 l-23 -21 -23 21 c-22 20 -31 21 -232 21 -169 0 -216 -4 -243 -16 -29 -14 -34 -14 -50 0 -12 10 -35 14 -75 13 -66 -3 -75 -11 -107 -98 -12 -32 -25 -58 -30 -58 -4 0 -18 29 -30 64 -26 80 -50 104 -89 90 -17 -7 -36 -7 -52 -2 -13 5 -59 8 -101 6 -62 -2 -81 -7 -100 -25 l-23 -22 -28 25 c-25 21 -38 24 -113 24 -47 0 -94 -5 -104 -10 -13 -7 -21 -7 -25 0 -3 6 -48 10 -99 10 -84 0 -95 -2 -114 -23 -19 -20 -22 -35 -22 -103 0 -75 -1 -78 -15 -51 -8 15 -24 55 -36 88 -32 88 -77 112 -123 66z m404 -27 c0 -18 -7 -20 -80 -20 l-80 0 0 -39 0 -38 71 5 c70 5 71 5 67 -19 -3 -23 -6 -24 -70 -20 l-68 3 0 -41 0 -41 80 0 c73 0 80 -2 80 -20 0 -18 -7 -20 -84 -20 -46 0 -91 3 -100 6 -13 5 -16 26 -16 128 0 68 3 126 7 129 3 4 48 7 100 7 86 0 93 -1 93 -20z m231 2 c17 -15 22 -29 22 -65 0 -51 -15 -77 -45 -77 -18 0 -16 -6 16 -50 20 -28 36 -52 36 -55 0 -3 -11 -5 -24 -5 -19 0 -32 12 -58 55 -29 49 -36 55 -65 55 l-33 0 0 -55 c0 -52 -1 -55 -25 -55 -22 0 -24 3 -20 38 2 20 4 81 4 135 l1 97 84 0 c67 0 88 -4 107 -18z m265 10 c24 -16 34 -55 34 -136 0 -115 -10 -126 -117 -126 -108 0 -113 6 -113 136 0 95 2 104 22 118 24 17 153 23 174 8z m133 -108 l44 -116 42 113 c35 95 45 115 64 117 26 4 29 16 -32 -148 -41 -109 -44 -115 -72 -118 -30 -2 -31 0 -80 125 -27 71 -51 131 -53 136 -2 4 7 7 20 7 20 0 28 -14 67 -116z m248 -19 l3 -135 -25 0 -25 0 0 135 c0 133 0 135 23 135 22 0 22 -2 24 -135z m253 115 c0 -17 -8 -19 -82 -22 -79 -3 -83 -4 -86 -27 -5 -33 4 -38 77 -50 76 -12 101 -32 101 -78 0 -58 -26 -73 -130 -73 -83 0 -90 1 -90 20 0 18 7 20 85 20 70 0 87 3 92 16 12 31 -12 48 -82 59 -45 8 -72 18 -81 30 -19 25 -18 75 2 103 14 20 23 22 105 22 82 0 89 -2 89 -20z m268 3 c-2 -14 -15 -19 -51 -21 l-47 -3 0 -115 c0 -107 -1 -114 -20 -114 -19 0 -20 7 -20 115 l0 115 -50 0 c-43 0 -50 3 -50 20 0 19 7 20 121 20 109 0 120 -2 117 -17z m-1395 -67 c8 -21 -4 -28 -22 -12 -9 8 -34 16 -56 19 -33 3 -31 4 16 5 41 2 58 -2 62 -12z m932 -76 c3 -5 33 -14 66 -21 72 -14 62 -24 -33 -32 l-68 -5 0 27 c0 37 20 55 35 31z m-925 -25 c0 -24 -2 -25 -64 -25 -36 0 -68 5 -71 10 -3 6 -5 10 -3 11 2 0 23 3 48 5 24 3 51 9 60 14 24 15 30 12 30 -15z m262 -10 c5 -40 -4 -45 -20 -11 -7 17 -7 27 1 35 15 15 14 16 19 -24z"/>
    

    <path d="M1020 645 l0 -46 63 3 62 3 3 43 3 42 -65 0 -66 0 0 -45z m90 -1 c0 -10 -7 -14 -22 -12 -32 5 -35 28 -4 28 17 0 26 -5 26 -16z"/>
    

    <path d="M1287 684 c-4 -4 -7 -45 -7 -91 0 -95 2 -98 83 -97 31 0 52 6 58 15 5 8 8 50 7 94 l-3 80 -65 3 c-36 2 -69 0 -73 -4z m107 -47 c3 -12 6 -41 6 -64 0 -32 -5 -45 -20 -53 -26 -14 -68 -3 -75 20 -9 29 4 102 21 115 24 17 61 7 68 -18z"/>
    

    <path d="M2413 631 l-21 -59 45 0 c38 0 43 2 38 16 -4 10 -14 36 -22 60 -8 23 -16 42 -16 42 -1 0 -12 -27 -24 -59z"/>
    

    <path d="M554 625 l-21 -55 43 0 c24 0 44 3 44 6 0 13 -35 104 -40 104 -3 0 -15 -25 -26 -55z"/>
    

    <path d="M509 513 c-5 -16 -12 -34 -14 -40 -2 -7 -14 -13 -27 -13 -16 0 -19 -3 -11 -11 14 -14 45 2 67 36 26 39 78 35 120 -10 25 -26 38 -33 52 -28 17 7 17 8 -5 11 -16 3 -28 15 -39 43 l-15 39 -59 0 c-55 0 -59 -2 -69 -27z"/>
    

    <path d="M2363 500 c-12 -29 -22 -40 -37 -40 -17 0 -18 -2 -7 -9 19 -12 43 1 61 33 11 21 21 26 53 26 33 0 45 -6 71 -35 24 -27 35 -33 46 -25 12 8 11 10 -6 10 -15 0 -24 10 -34 40 l-13 40 -59 0 -60 0 -15 -40z"/>
    

  </g>
  

</svg>
